<svg xmlns="http://www.w3.org/2000/svg" version="1.1" xmlns:xlink="http://www.w3.org/1999/xlink" xmlns:svgjs="http://svgjs.com/svgjs" width="2000" height="566" preserveAspectRatio="none" viewBox="0 0 2000 566">
    <g mask="url(&quot;#SvgjsMask1211&quot;)" fill="none">
        <rect width="2000" height="566" x="0" y="0" fill="#0e2a47"></rect>
        <path d="M346 308L345 528" stroke-width="10" stroke="url(#SvgjsLinearGradient1212)" stroke-linecap="round" class="Up"></path>
        <path d="M475 559L474 877" stroke-width="8" stroke="url(#SvgjsLinearGradient1213)" stroke-linecap="round" class="Down"></path>
        <path d="M880 449L879 199" stroke-width="10" stroke="url(#SvgjsLinearGradient1213)" stroke-linecap="round" class="Down"></path>
        <path d="M1363 532L1362 235" stroke-width="10" stroke="url(#SvgjsLinearGradient1213)" stroke-linecap="round" class="Down"></path>
        <path d="M818 215L817 40" stroke-width="10" stroke="url(#SvgjsLinearGradient1213)" stroke-linecap="round" class="Down"></path>
        <path d="M353 108L352 482" stroke-width="8" stroke="url(#SvgjsLinearGradient1212)" stroke-linecap="round" class="Up"></path>
        <path d="M816 508L815 720" stroke-width="6" stroke="url(#SvgjsLinearGradient1213)" stroke-linecap="round" class="Down"></path>
        <path d="M955 297L954 450" stroke-width="10" stroke="url(#SvgjsLinearGradient1212)" stroke-linecap="round" class="Up"></path>
        <path d="M1265 97L1264 -140" stroke-width="8" stroke="url(#SvgjsLinearGradient1212)" stroke-linecap="round" class="Up"></path>
        <path d="M164 162L163 -78" stroke-width="6" stroke="url(#SvgjsLinearGradient1212)" stroke-linecap="round" class="Up"></path>
        <path d="M595 477L594 218" stroke-width="10" stroke="url(#SvgjsLinearGradient1212)" stroke-linecap="round" class="Up"></path>
        <path d="M901 207L900 617" stroke-width="10" stroke="url(#SvgjsLinearGradient1213)" stroke-linecap="round" class="Down"></path>
        <path d="M984 201L983 -109" stroke-width="10" stroke="url(#SvgjsLinearGradient1213)" stroke-linecap="round" class="Down"></path>
        <path d="M1941 444L1940 714" stroke-width="6" stroke="url(#SvgjsLinearGradient1213)" stroke-linecap="round" class="Down"></path>
        <path d="M901 265L900 -143" stroke-width="8" stroke="url(#SvgjsLinearGradient1212)" stroke-linecap="round" class="Up"></path>
        <path d="M1563 381L1562 9" stroke-width="8" stroke="url(#SvgjsLinearGradient1212)" stroke-linecap="round" class="Up"></path>
        <path d="M1047 362L1046 192" stroke-width="6" stroke="url(#SvgjsLinearGradient1213)" stroke-linecap="round" class="Down"></path>
        <path d="M457 92L456 -155" stroke-width="6" stroke="url(#SvgjsLinearGradient1212)" stroke-linecap="round" class="Up"></path>
        <path d="M930 176L929 375" stroke-width="8" stroke="url(#SvgjsLinearGradient1212)" stroke-linecap="round" class="Up"></path>
        <path d="M353 16L352 -139" stroke-width="8" stroke="url(#SvgjsLinearGradient1212)" stroke-linecap="round" class="Up"></path>
        <path d="M1447 96L1446 265" stroke-width="8" stroke="url(#SvgjsLinearGradient1213)" stroke-linecap="round" class="Down"></path>
        <path d="M1547 383L1546 670" stroke-width="6" stroke="url(#SvgjsLinearGradient1212)" stroke-linecap="round" class="Up"></path>
        <path d="M480 459L479 709" stroke-width="8" stroke="url(#SvgjsLinearGradient1213)" stroke-linecap="round" class="Down"></path>
        <path d="M1180 476L1179 773" stroke-width="6" stroke="url(#SvgjsLinearGradient1212)" stroke-linecap="round" class="Up"></path>
        <path d="M1576 468L1575 774" stroke-width="8" stroke="url(#SvgjsLinearGradient1213)" stroke-linecap="round" class="Down"></path>
        <path d="M496 328L495 3" stroke-width="6" stroke="url(#SvgjsLinearGradient1212)" stroke-linecap="round" class="Up"></path>
        <path d="M1345 422L1344 191" stroke-width="6" stroke="url(#SvgjsLinearGradient1212)" stroke-linecap="round" class="Up"></path>
        <path d="M1408 215L1407 506" stroke-width="10" stroke="url(#SvgjsLinearGradient1213)" stroke-linecap="round" class="Down"></path>
        <path d="M1385 385L1384 -29" stroke-width="6" stroke="url(#SvgjsLinearGradient1212)" stroke-linecap="round" class="Up"></path>
        <path d="M722 542L721 905" stroke-width="6" stroke="url(#SvgjsLinearGradient1212)" stroke-linecap="round" class="Up"></path>
        <path d="M863 72L862 416" stroke-width="8" stroke="url(#SvgjsLinearGradient1213)" stroke-linecap="round" class="Down"></path>
        <path d="M1526 426L1525 280" stroke-width="10" stroke="url(#SvgjsLinearGradient1213)" stroke-linecap="round" class="Down"></path>
        <path d="M1274 514L1273 90" stroke-width="8" stroke="url(#SvgjsLinearGradient1213)" stroke-linecap="round" class="Down"></path>
        <path d="M1624 94L1623 249" stroke-width="8" stroke="url(#SvgjsLinearGradient1212)" stroke-linecap="round" class="Up"></path>
        <path d="M224 134L223 433" stroke-width="8" stroke="url(#SvgjsLinearGradient1212)" stroke-linecap="round" class="Up"></path>
        <path d="M38 501L37 128" stroke-width="10" stroke="url(#SvgjsLinearGradient1213)" stroke-linecap="round" class="Down"></path>
        <path d="M1235 557L1234 373" stroke-width="6" stroke="url(#SvgjsLinearGradient1212)" stroke-linecap="round" class="Up"></path>
        <path d="M1456 168L1455 0" stroke-width="10" stroke="url(#SvgjsLinearGradient1213)" stroke-linecap="round" class="Down"></path>
        <path d="M1434 25L1433 -330" stroke-width="10" stroke="url(#SvgjsLinearGradient1212)" stroke-linecap="round" class="Up"></path>
        <path d="M884 136L883 343" stroke-width="6" stroke="url(#SvgjsLinearGradient1212)" stroke-linecap="round" class="Up"></path>
        <path d="M139 280L138 631" stroke-width="10" stroke="url(#SvgjsLinearGradient1213)" stroke-linecap="round" class="Down"></path>
        <path d="M1004 377L1003 697" stroke-width="10" stroke="url(#SvgjsLinearGradient1212)" stroke-linecap="round" class="Up"></path>
        <path d="M1587 143L1586 478" stroke-width="8" stroke="url(#SvgjsLinearGradient1212)" stroke-linecap="round" class="Up"></path>
        <path d="M1730 358L1729 69" stroke-width="6" stroke="url(#SvgjsLinearGradient1213)" stroke-linecap="round" class="Down"></path>
        <path d="M481 439L480 266" stroke-width="8" stroke="url(#SvgjsLinearGradient1213)" stroke-linecap="round" class="Down"></path>
        <path d="M1653 70L1652 372" stroke-width="8" stroke="url(#SvgjsLinearGradient1213)" stroke-linecap="round" class="Down"></path>
        <path d="M1702 351L1701 752" stroke-width="6" stroke="url(#SvgjsLinearGradient1213)" stroke-linecap="round" class="Down"></path>
        <path d="M1356 179L1355 576" stroke-width="6" stroke="url(#SvgjsLinearGradient1213)" stroke-linecap="round" class="Down"></path>
        <path d="M375 103L374 -232" stroke-width="8" stroke="url(#SvgjsLinearGradient1213)" stroke-linecap="round" class="Down"></path>
        <path d="M1946 516L1945 173" stroke-width="8" stroke="url(#SvgjsLinearGradient1212)" stroke-linecap="round" class="Up"></path>
    </g>
    <defs>
        <mask id="SvgjsMask1211">
            <rect width="2000" height="566" fill="#ffffff"></rect>
        </mask>
        <linearGradient x1="0%" y1="100%" x2="0%" y2="0%" id="SvgjsLinearGradient1212">
            <stop stop-color="rgba(22, 38, 217, 0)" offset="0"></stop>
            <stop stop-color="rgba(22, 38, 217, 1)" offset="1"></stop>
        </linearGradient>
        <linearGradient x1="0%" y1="0%" x2="0%" y2="100%" id="SvgjsLinearGradient1213">
            <stop stop-color="rgba(22, 38, 217, 0)" offset="0"></stop>
            <stop stop-color="rgba(22, 38, 217, 1)" offset="1"></stop>
        </linearGradient>
    </defs>
</svg>